<svg xmlns="http://www.w3.org/2000/svg" viewBox="0 0 128 128">
  <rect width="128" height="128" rx="20" fill="#2E001F"/>
  <rect x="6" y="6" width="116" height="116" rx="16" fill="none" stroke="#FF3CAC" stroke-width="6"/>
  <path fill="#FF3CAC" d="M33 39h12v50H33zM79.6 88.2c-4.5 0-8.3-1-11.3-3-3-2-5.3-4.7-6.9-8.2-1.5-3.5-2.3-7.5-2.3-12 0-4.4.8-8.3 2.4-11.8 1.6-3.5 3.9-6.2 6.9-8.2 3-2 6.6-3 10.9-3 2.1 0 4.2.3 6.2.8 2 .5 3.7 1.2 5 2.1v10.7c-1.5-1-3.1-1.8-4.9-2.3-1.8-.5-3.6-.8-5.5-.8-3.1 0-5.5 1.1-7.2 3.2-1.7 2.1-2.5 5.3-2.5 9.3 0 4.2.8 7.3 2.4 9.4 1.6 2.1 4 3.2 7.3 3.2 1.1 0 2.2-.1 3.2-.3V64.3H74V55h19.2v30.5c-1.8 1-3.8 1.8-6 2.2-2.2.4-4.4.5-6.6.5z"/>
</svg>
